<svg id="svg" version="1.1" xmlns="http://www.w3.org/2000/svg" xmlns:xlink="http://www.w3.org/1999/xlink" width="400" height="400" viewBox="0, 0, 400,400"><g id="svgg"><path id="path0" d="M169.400 45.567 C 163.700 47.118,156.810 53.582,155.408 58.693 C 155.121 59.742,154.616 61.140,154.288 61.800 C 153.867 62.645,153.620 64.954,153.453 69.600 C 153.058 80.596,148.835 86.404,140.360 87.606 C 138.862 87.818,136.953 88.249,136.118 88.563 C 135.283 88.877,133.112 89.222,131.294 89.330 C 124.743 89.717,118.583 94.296,114.743 101.634 L 113.400 104.200 113.400 111.000 L 113.400 117.800 115.135 120.898 C 117.034 124.289,122.504 129.828,124.380 130.260 C 124.941 130.389,126.210 130.961,127.200 131.531 C 128.903 132.512,129.355 132.575,135.600 132.704 C 141.030 132.817,142.448 132.971,143.600 133.572 C 144.370 133.973,145.630 134.415,146.400 134.553 C 150.055 135.206,154.897 141.446,155.601 146.410 C 155.821 147.960,156.271 149.874,156.601 150.663 C 157.546 152.927,157.420 159.460,156.400 161.000 C 155.963 161.660,155.604 162.506,155.603 162.880 C 155.599 163.879,150.274 169.118,148.936 169.440 C 148.311 169.591,147.165 170.031,146.388 170.420 C 145.355 170.937,143.478 171.203,139.388 171.412 C 134.851 171.644,133.370 171.877,131.512 172.649 C 130.254 173.172,129.012 173.600,128.753 173.600 C 126.224 173.600,117.600 182.246,117.600 184.783 C 117.600 185.126,117.150 186.252,116.600 187.285 C 111.727 196.439,120.982 213.292,131.697 214.777 C 133.074 214.968,134.920 215.388,135.800 215.710 C 136.680 216.032,139.414 216.412,141.875 216.553 C 151.868 217.129,156.973 222.780,157.569 233.926 C 157.775 237.779,158.048 239.714,158.484 240.409 C 158.826 240.954,159.225 242.202,159.371 243.183 C 160.040 247.680,167.444 255.888,171.517 256.646 C 172.333 256.798,173.720 257.300,174.600 257.761 C 176.986 259.012,185.123 259.000,187.251 257.743 C 188.048 257.271,189.243 256.766,189.904 256.621 C 196.752 255.117,202.374 246.780,202.757 237.561 C 202.914 233.786,203.178 231.508,203.503 231.116 C 203.780 230.783,204.192 229.450,204.417 228.155 C 205.178 223.792,208.205 219.803,212.344 217.709 L 214.537 216.600 224.169 216.610 L 233.800 216.620 236.203 218.072 C 240.894 220.907,243.050 224.889,243.559 231.658 C 243.746 234.156,244.164 236.830,244.486 237.600 C 244.809 238.370,245.202 239.990,245.361 241.200 C 246.029 246.305,250.572 251.503,257.631 255.238 L 260.200 256.597 266.200 256.598 L 272.200 256.600 275.600 254.941 C 280.941 252.336,285.885 247.074,286.667 243.163 C 286.816 242.421,287.304 241.191,287.752 240.432 C 288.940 238.418,288.940 231.582,287.752 229.568 C 287.304 228.809,286.817 227.584,286.669 226.846 C 285.241 219.704,276.354 213.559,267.058 213.286 C 263.013 213.167,261.136 212.953,260.474 212.533 C 259.964 212.211,258.483 211.776,257.183 211.566 C 252.421 210.799,247.586 206.017,246.500 201.000 C 246.262 199.900,245.748 198.171,245.358 197.159 C 244.667 195.366,244.671 195.239,245.495 192.359 C 245.961 190.731,246.462 188.332,246.609 187.027 C 247.432 179.705,253.419 175.121,263.015 174.465 C 266.450 174.230,268.662 173.885,269.495 173.454 C 270.191 173.094,271.361 172.800,272.096 172.800 C 272.830 172.800,274.144 172.419,275.015 171.953 C 275.887 171.488,277.230 170.781,278.000 170.382 C 281.127 168.764,286.800 161.332,286.800 158.853 C 286.800 158.479,287.160 157.148,287.600 155.896 C 288.040 154.644,288.400 152.812,288.400 151.825 C 288.400 150.837,288.040 149.116,287.600 148.000 C 287.160 146.884,286.800 145.552,286.800 145.041 C 286.800 141.356,278.990 132.692,274.675 131.589 C 273.754 131.354,272.157 130.810,271.126 130.381 C 268.542 129.304,263.458 129.304,260.874 130.381 C 259.843 130.810,258.240 131.356,257.311 131.593 C 253.196 132.645,246.171 140.035,245.439 144.083 C 245.291 144.898,244.838 146.338,244.433 147.283 C 243.898 148.529,243.631 150.457,243.460 154.317 C 243.102 162.392,240.286 167.235,234.240 170.171 L 231.879 171.318 223.165 171.240 L 214.452 171.162 212.126 169.999 C 208.442 168.157,204.405 163.269,204.398 160.640 C 204.396 160.178,204.089 159.260,203.715 158.600 C 203.204 157.698,202.979 156.011,202.808 151.800 C 202.633 147.496,202.412 145.876,201.853 144.800 C 201.453 144.030,200.883 142.731,200.585 141.913 C 199.962 140.200,197.420 136.666,195.746 135.187 C 193.963 133.611,190.926 131.600,190.331 131.600 C 190.036 131.600,188.895 131.109,187.797 130.510 C 185.850 129.447,185.588 129.414,177.400 129.195 C 168.229 128.950,167.468 128.774,163.313 125.933 C 161.372 124.606,159.182 121.147,158.457 118.263 C 158.189 117.197,157.697 115.910,157.364 115.401 C 156.303 113.782,156.773 103.723,158.067 100.357 C 159.995 95.341,164.103 91.246,167.881 90.573 C 168.716 90.424,170.030 89.975,170.800 89.574 C 171.854 89.027,173.352 88.810,176.854 88.699 C 180.440 88.586,181.755 88.391,182.582 87.848 C 183.173 87.461,184.376 86.891,185.255 86.581 C 189.737 84.999,196.058 77.801,196.614 73.646 C 196.750 72.631,197.117 71.121,197.431 70.292 C 198.124 68.455,198.173 65.064,197.523 63.874 C 197.260 63.393,196.922 61.982,196.771 60.738 C 196.153 55.651,191.900 50.527,185.284 46.901 L 182.600 45.430 176.600 45.335 C 173.300 45.283,170.060 45.388,169.400 45.567 M184.571 174.611 C 188.625 174.796,189.964 175.002,190.771 175.565 C 191.337 175.960,192.272 176.397,192.849 176.537 C 194.875 177.026,198.663 181.655,199.594 184.779 C 200.051 186.313,200.599 187.676,200.812 187.808 C 201.613 188.302,201.278 197.878,200.400 199.600 C 199.960 200.462,199.600 201.672,199.600 202.287 C 199.600 205.299,195.692 210.107,191.607 212.121 L 189.014 213.400 180.207 213.391 L 171.400 213.382 168.638 211.791 C 163.151 208.630,160.987 205.049,160.455 198.250 C 160.045 193.011,160.587 184.506,161.389 183.600 C 161.681 183.270,162.180 182.370,162.498 181.600 C 163.117 180.102,166.615 176.400,167.412 176.400 C 167.676 176.400,168.341 176.047,168.890 175.615 C 170.063 174.693,174.052 174.029,177.200 174.233 C 178.410 174.312,181.727 174.482,184.571 174.611 M332.102 259.647 C 329.211 260.482,329.412 257.141,329.293 306.230 C 329.175 354.796,329.081 352.841,331.600 354.099 C 335.166 355.881,346.305 354.826,347.785 352.566 C 348.601 351.322,348.909 351.347,351.122 352.840 C 353.924 354.732,354.466 354.836,361.495 354.845 C 368.994 354.853,369.685 354.653,373.686 351.310 C 376.763 348.739,380.800 342.154,380.800 339.706 C 380.800 339.261,381.268 337.873,381.841 336.623 L 382.882 334.349 382.882 319.416 L 382.882 304.483 381.871 302.141 C 381.314 300.854,380.751 299.143,380.619 298.341 C 380.487 297.538,380.024 296.430,379.589 295.877 C 379.155 295.325,378.800 294.616,378.800 294.301 C 378.800 292.500,373.244 286.668,369.819 284.876 L 367.000 283.400 361.534 283.400 C 356.492 283.400,355.972 283.470,354.850 284.300 C 352.411 286.103,352.459 286.296,352.324 274.300 C 352.149 258.855,352.400 259.183,340.800 259.238 C 336.730 259.257,332.816 259.441,332.102 259.647 M18.194 266.170 L 17.189 267.174 17.295 309.976 L 17.400 352.778 18.310 353.689 C 19.399 354.779,34.151 355.332,36.475 354.369 C 38.539 353.514,38.585 353.202,38.800 338.600 L 39.000 325.000 42.600 324.764 C 45.034 324.605,46.808 324.249,48.078 323.664 C 49.111 323.189,50.461 322.797,51.078 322.794 C 51.695 322.791,52.650 322.527,53.200 322.208 C 53.750 321.888,54.927 321.284,55.815 320.864 C 57.924 319.868,63.466 314.362,64.485 312.252 C 64.923 311.343,65.623 309.970,66.040 309.200 C 66.457 308.430,66.799 307.327,66.799 306.748 C 66.800 306.170,67.263 304.685,67.829 303.448 C 69.295 300.246,69.204 286.069,67.700 283.406 C 67.205 282.529,66.800 281.340,66.800 280.762 C 66.800 277.447,60.166 269.448,56.000 267.740 C 55.230 267.425,53.880 266.769,53.000 266.283 C 51.435 265.419,51.046 265.397,35.299 265.283 L 19.198 265.166 18.194 266.170 M207.790 265.758 C 205.516 266.749,205.600 265.056,205.600 309.839 C 205.600 355.747,205.443 353.074,208.214 354.232 C 210.183 355.054,224.249 355.041,226.227 354.214 C 228.750 353.160,228.800 352.786,228.800 334.813 L 228.800 318.800 234.979 318.800 L 241.159 318.800 241.279 335.118 C 241.414 353.371,241.362 353.040,244.287 354.262 C 246.312 355.108,261.355 354.895,262.705 354.001 C 264.880 352.560,264.830 353.672,264.711 308.909 L 264.600 267.618 263.491 266.509 L 262.382 265.400 253.000 265.400 L 243.618 265.400 242.509 266.509 L 241.400 267.617 241.277 282.409 L 241.155 297.200 234.977 297.200 L 228.800 297.200 228.800 282.780 C 228.800 266.847,228.747 266.478,226.352 265.643 C 224.468 264.987,209.347 265.080,207.790 265.758 M176.918 271.719 C 175.393 272.566,173.594 275.734,173.319 278.055 C 173.181 279.223,172.755 280.724,172.372 281.390 C 171.990 282.055,171.559 283.172,171.413 283.872 C 171.192 284.938,169.048 287.200,168.259 287.200 C 168.153 287.200,167.683 286.582,167.217 285.827 C 164.550 281.512,155.705 282.058,149.029 286.951 C 148.719 287.177,148.164 286.943,147.456 286.287 C 145.314 284.302,144.096 284.000,138.220 284.000 C 128.249 284.000,129.162 280.299,129.293 320.182 L 129.400 352.778 130.310 353.689 C 131.378 354.758,144.675 355.312,147.702 354.413 C 150.672 353.531,150.576 354.227,150.800 331.960 C 150.977 314.331,151.074 311.999,151.653 311.342 C 152.012 310.934,152.437 310.150,152.599 309.600 C 153.403 306.858,157.223 304.800,161.508 304.800 C 163.964 304.800,164.500 304.664,165.560 303.773 C 166.376 303.086,167.149 302.787,167.890 302.873 L 169.000 303.000 169.200 322.200 C 169.395 340.943,169.420 341.433,170.257 342.800 C 170.728 343.570,171.240 344.796,171.394 345.524 C 172.351 350.049,178.904 354.768,184.380 354.875 C 202.291 355.226,202.800 354.930,202.800 344.151 C 202.800 335.115,202.858 335.200,196.664 335.200 C 190.560 335.200,191.000 336.536,191.000 318.000 L 191.000 303.000 195.936 302.800 C 202.854 302.520,202.802 302.585,202.794 294.078 C 202.786 285.078,202.211 284.292,195.472 284.060 C 190.573 283.891,190.814 284.187,190.806 278.333 C 190.799 272.963,190.703 272.577,189.171 271.785 C 187.713 271.031,178.247 270.980,176.918 271.719 M89.496 283.755 C 88.669 284.059,87.769 284.484,87.496 284.699 C 87.223 284.914,86.460 285.218,85.800 285.375 C 82.367 286.193,73.699 294.520,73.587 297.108 C 73.581 297.268,73.041 298.475,72.387 299.790 C 71.734 301.104,71.200 302.686,71.200 303.306 C 71.200 303.925,70.795 305.190,70.300 306.116 C 68.952 308.638,68.901 329.645,70.236 332.200 C 70.696 333.080,71.182 334.612,71.315 335.604 C 72.139 341.718,78.766 349.817,85.981 353.530 L 88.567 354.860 97.071 354.870 L 105.575 354.879 108.288 353.571 C 113.556 351.032,119.013 345.583,120.591 341.287 C 120.891 340.469,121.511 339.087,121.968 338.215 C 122.426 337.344,122.800 336.119,122.800 335.493 C 122.800 334.868,123.205 333.511,123.700 332.478 C 124.566 330.671,124.600 330.184,124.600 319.600 C 124.600 309.016,124.566 308.529,123.700 306.722 C 123.205 305.689,122.799 304.249,122.798 303.522 C 122.797 302.795,122.352 301.480,121.810 300.600 C 121.268 299.720,120.819 298.699,120.812 298.331 C 120.806 297.963,120.375 297.153,119.855 296.531 C 119.335 295.909,118.770 294.956,118.600 294.413 C 117.869 292.079,110.855 286.008,108.153 285.369 C 107.519 285.220,106.370 284.715,105.600 284.249 C 103.805 283.160,92.087 282.801,89.496 283.755 M273.400 284.565 C 271.929 285.218,270.595 286.627,270.027 288.126 C 269.275 290.111,269.454 329.017,270.227 331.436 C 270.571 332.516,270.998 335.290,271.175 337.600 C 271.433 340.973,271.703 342.186,272.548 343.760 C 273.127 344.837,273.600 345.941,273.600 346.213 C 273.600 347.135,279.763 353.053,281.658 353.951 C 283.356 354.755,284.139 354.832,290.711 354.841 C 298.627 354.852,299.042 354.762,302.756 352.242 C 303.942 351.437,304.946 350.828,304.987 350.889 C 305.028 350.950,305.298 351.593,305.587 352.319 C 306.448 354.480,307.584 354.800,314.393 354.800 C 325.654 354.800,324.574 358.379,324.714 320.592 C 324.840 286.417,324.921 287.581,322.263 285.439 L 320.726 284.200 312.832 284.200 L 304.938 284.200 303.486 285.308 C 301.241 287.020,301.205 287.402,301.202 309.343 L 301.200 329.286 299.982 331.839 C 299.311 333.243,298.423 334.573,298.008 334.796 C 296.771 335.458,294.807 335.291,294.527 334.500 C 294.390 334.115,293.991 333.466,293.639 333.058 C 293.075 332.404,292.977 329.648,292.800 309.600 C 292.577 284.292,292.787 286.044,289.803 284.628 C 288.041 283.792,275.250 283.742,273.400 284.565 M43.058 286.440 C 45.210 287.921,45.376 288.520,45.375 294.833 L 45.374 299.865 44.085 301.493 C 42.891 303.000,39.792 304.058,38.972 303.238 C 38.674 302.940,38.786 285.347,39.088 285.045 C 39.553 284.581,41.194 285.157,43.058 286.440 M98.873 304.300 C 100.649 306.209,101.104 307.317,101.380 310.400 C 101.528 312.050,101.908 314.536,102.224 315.925 C 102.945 319.084,102.943 320.500,102.217 322.892 C 101.901 323.933,101.518 326.325,101.365 328.208 C 100.633 337.226,93.453 337.714,92.661 328.800 C 92.534 327.370,92.063 325.169,91.615 323.910 C 90.546 320.906,90.554 317.452,91.636 314.715 C 92.096 313.552,92.575 311.260,92.700 309.622 C 93.079 304.655,96.478 301.725,98.873 304.300 M357.715 304.102 C 358.476 304.715,359.016 305.717,359.416 307.256 C 359.738 308.497,360.271 310.027,360.599 310.656 C 361.602 312.581,361.456 326.329,360.411 328.379 C 359.976 329.230,359.502 330.669,359.357 331.577 C 358.733 335.483,356.084 336.426,354.079 333.456 C 352.647 331.333,352.104 323.703,352.604 312.711 L 352.896 306.296 354.294 304.748 C 355.919 302.950,356.215 302.894,357.715 304.102 " stroke="none" fill="#000000" fill-rule="evenodd"></path><path id="path1" d="M169.400 45.567 C 163.700 47.118,156.810 53.582,155.408 58.693 C 155.121 59.742,154.616 61.140,154.288 61.800 C 153.867 62.645,153.620 64.954,153.453 69.600 C 153.058 80.596,148.835 86.404,140.360 87.606 C 138.862 87.818,136.953 88.249,136.118 88.563 C 135.283 88.877,133.112 89.222,131.294 89.330 C 124.743 89.717,118.583 94.296,114.743 101.634 L 113.400 104.200 113.400 111.000 L 113.400 117.800 115.135 120.898 C 117.034 124.289,122.504 129.828,124.380 130.260 C 124.941 130.389,126.210 130.961,127.200 131.531 C 128.903 132.512,129.355 132.575,135.600 132.704 C 141.030 132.817,142.448 132.971,143.600 133.572 C 144.370 133.973,145.630 134.415,146.400 134.553 C 150.055 135.206,154.897 141.446,155.601 146.410 C 155.821 147.960,156.271 149.874,156.601 150.663 C 157.546 152.927,157.420 159.460,156.400 161.000 C 155.963 161.660,155.604 162.506,155.603 162.880 C 155.599 163.879,150.274 169.118,148.936 169.440 C 148.311 169.591,147.165 170.031,146.388 170.420 C 145.355 170.937,143.478 171.203,139.388 171.412 C 134.851 171.644,133.370 171.877,131.512 172.649 C 130.254 173.172,129.012 173.600,128.753 173.600 C 126.224 173.600,117.600 182.246,117.600 184.783 C 117.600 185.126,117.150 186.252,116.600 187.285 C 111.727 196.439,120.982 213.292,131.697 214.777 C 133.074 214.968,134.920 215.388,135.800 215.710 C 136.680 216.032,139.414 216.412,141.875 216.553 C 151.868 217.129,156.973 222.780,157.569 233.926 C 157.775 237.779,158.048 239.714,158.484 240.409 C 158.826 240.954,159.225 242.202,159.371 243.183 C 160.040 247.680,167.444 255.888,171.517 256.646 C 172.333 256.798,173.720 257.300,174.600 257.761 C 176.986 259.012,185.123 259.000,187.251 257.743 C 188.048 257.271,189.243 256.766,189.904 256.621 C 196.752 255.117,202.374 246.780,202.757 237.561 C 202.914 233.786,203.178 231.508,203.503 231.116 C 203.780 230.783,204.192 229.450,204.417 228.155 C 205.178 223.792,208.205 219.803,212.344 217.709 L 214.537 216.600 224.169 216.610 L 233.800 216.620 236.203 218.072 C 240.894 220.907,243.050 224.889,243.559 231.658 C 243.746 234.156,244.164 236.830,244.486 237.600 C 244.809 238.370,245.202 239.990,245.361 241.200 C 246.029 246.305,250.572 251.503,257.631 255.238 L 260.200 256.597 266.200 256.598 L 272.200 256.600 275.600 254.941 C 280.941 252.336,285.885 247.074,286.667 243.163 C 286.816 242.421,287.304 241.191,287.752 240.432 C 288.940 238.418,288.940 231.582,287.752 229.568 C 287.304 228.809,286.817 227.584,286.669 226.846 C 285.241 219.704,276.354 213.559,267.058 213.286 C 263.013 213.167,261.136 212.953,260.474 212.533 C 259.964 212.211,258.483 211.776,257.183 211.566 C 252.421 210.799,247.586 206.017,246.500 201.000 C 246.262 199.900,245.748 198.171,245.358 197.159 C 244.667 195.366,244.671 195.239,245.495 192.359 C 245.961 190.731,246.462 188.332,246.609 187.027 C 247.432 179.705,253.419 175.121,263.015 174.465 C 266.450 174.230,268.662 173.885,269.495 173.454 C 270.191 173.094,271.361 172.800,272.096 172.800 C 272.830 172.800,274.144 172.419,275.015 171.953 C 275.887 171.488,277.230 170.781,278.000 170.382 C 281.127 168.764,286.800 161.332,286.800 158.853 C 286.800 158.479,287.160 157.148,287.600 155.896 C 288.040 154.644,288.400 152.812,288.400 151.825 C 288.400 150.837,288.040 149.116,287.600 148.000 C 287.160 146.884,286.800 145.552,286.800 145.041 C 286.800 141.356,278.990 132.692,274.675 131.589 C 273.754 131.354,272.157 130.810,271.126 130.381 C 268.542 129.304,263.458 129.304,260.874 130.381 C 259.843 130.810,258.240 131.356,257.311 131.593 C 253.196 132.645,246.171 140.035,245.439 144.083 C 245.291 144.898,244.838 146.338,244.433 147.283 C 243.898 148.529,243.631 150.457,243.460 154.317 C 243.102 162.392,240.286 167.235,234.240 170.171 L 231.879 171.318 223.165 171.240 L 214.452 171.162 212.126 169.999 C 208.442 168.157,204.405 163.269,204.398 160.640 C 204.396 160.178,204.089 159.260,203.715 158.600 C 203.204 157.698,202.979 156.011,202.808 151.800 C 202.633 147.496,202.412 145.876,201.853 144.800 C 201.453 144.030,200.883 142.731,200.585 141.913 C 199.962 140.200,197.420 136.666,195.746 135.187 C 193.963 133.611,190.926 131.600,190.331 131.600 C 190.036 131.600,188.895 131.109,187.797 130.510 C 185.850 129.447,185.588 129.414,177.400 129.195 C 168.229 128.950,167.468 128.774,163.313 125.933 C 161.372 124.606,159.182 121.147,158.457 118.263 C 158.189 117.197,157.697 115.910,157.364 115.401 C 156.303 113.782,156.773 103.723,158.067 100.357 C 159.995 95.341,164.103 91.246,167.881 90.573 C 168.716 90.424,170.030 89.975,170.800 89.574 C 171.854 89.027,173.352 88.810,176.854 88.699 C 180.440 88.586,181.755 88.391,182.582 87.848 C 183.173 87.461,184.376 86.891,185.255 86.581 C 189.737 84.999,196.058 77.801,196.614 73.646 C 196.750 72.631,197.117 71.121,197.431 70.292 C 198.124 68.455,198.173 65.064,197.523 63.874 C 197.260 63.393,196.922 61.982,196.771 60.738 C 196.153 55.651,191.900 50.527,185.284 46.901 L 182.600 45.430 176.600 45.335 C 173.300 45.283,170.060 45.388,169.400 45.567 M184.571 174.611 C 188.625 174.796,189.964 175.002,190.771 175.565 C 191.337 175.960,192.272 176.397,192.849 176.537 C 194.875 177.026,198.663 181.655,199.594 184.779 C 200.051 186.313,200.599 187.676,200.812 187.808 C 201.613 188.302,201.278 197.878,200.400 199.600 C 199.960 200.462,199.600 201.672,199.600 202.287 C 199.600 205.299,195.692 210.107,191.607 212.121 L 189.014 213.400 180.207 213.391 L 171.400 213.382 168.638 211.791 C 163.151 208.630,160.987 205.049,160.455 198.250 C 160.045 193.011,160.587 184.506,161.389 183.600 C 161.681 183.270,162.180 182.370,162.498 181.600 C 163.117 180.102,166.615 176.400,167.412 176.400 C 167.676 176.400,168.341 176.047,168.890 175.615 C 170.063 174.693,174.052 174.029,177.200 174.233 C 178.410 174.312,181.727 174.482,184.571 174.611 M332.102 259.647 C 329.211 260.482,329.412 257.141,329.293 306.230 C 329.175 354.796,329.081 352.841,331.600 354.099 C 335.166 355.881,346.305 354.826,347.785 352.566 C 348.601 351.322,348.909 351.347,351.122 352.840 C 353.924 354.732,354.466 354.836,361.495 354.845 C 368.994 354.853,369.685 354.653,373.686 351.310 C 376.763 348.739,380.800 342.154,380.800 339.706 C 380.800 339.261,381.268 337.873,381.841 336.623 L 382.882 334.349 382.882 319.416 L 382.882 304.483 381.871 302.141 C 381.314 300.854,380.751 299.143,380.619 298.341 C 380.487 297.538,380.024 296.430,379.589 295.877 C 379.155 295.325,378.800 294.616,378.800 294.301 C 378.800 292.500,373.244 286.668,369.819 284.876 L 367.000 283.400 361.534 283.400 C 356.492 283.400,355.972 283.470,354.850 284.300 C 352.411 286.103,352.459 286.296,352.324 274.300 C 352.149 258.855,352.400 259.183,340.800 259.238 C 336.730 259.257,332.816 259.441,332.102 259.647 M18.194 266.170 L 17.189 267.174 17.295 309.976 L 17.400 352.778 18.310 353.689 C 19.399 354.779,34.151 355.332,36.475 354.369 C 38.539 353.514,38.585 353.202,38.800 338.600 L 39.000 325.000 42.600 324.764 C 45.034 324.605,46.808 324.249,48.078 323.664 C 49.111 323.189,50.461 322.797,51.078 322.794 C 51.695 322.791,52.650 322.527,53.200 322.208 C 53.750 321.888,54.927 321.284,55.815 320.864 C 57.924 319.868,63.466 314.362,64.485 312.252 C 64.923 311.343,65.623 309.970,66.040 309.200 C 66.457 308.430,66.799 307.327,66.799 306.748 C 66.800 306.170,67.263 304.685,67.829 303.448 C 69.295 300.246,69.204 286.069,67.700 283.406 C 67.205 282.529,66.800 281.340,66.800 280.762 C 66.800 277.447,60.166 269.448,56.000 267.740 C 55.230 267.425,53.880 266.769,53.000 266.283 C 51.435 265.419,51.046 265.397,35.299 265.283 L 19.198 265.166 18.194 266.170 M207.790 265.758 C 205.516 266.749,205.600 265.056,205.600 309.839 C 205.600 355.747,205.443 353.074,208.214 354.232 C 210.183 355.054,224.249 355.041,226.227 354.214 C 228.750 353.160,228.800 352.786,228.800 334.813 L 228.800 318.800 234.979 318.800 L 241.159 318.800 241.279 335.118 C 241.414 353.371,241.362 353.040,244.287 354.262 C 246.312 355.108,261.355 354.895,262.705 354.001 C 264.880 352.560,264.830 353.672,264.711 308.909 L 264.600 267.618 263.491 266.509 L 262.382 265.400 253.000 265.400 L 243.618 265.400 242.509 266.509 L 241.400 267.617 241.277 282.409 L 241.155 297.200 234.977 297.200 L 228.800 297.200 228.800 282.780 C 228.800 266.847,228.747 266.478,226.352 265.643 C 224.468 264.987,209.347 265.080,207.790 265.758 M176.918 271.719 C 175.393 272.566,173.594 275.734,173.319 278.055 C 173.181 279.223,172.755 280.724,172.372 281.390 C 171.990 282.055,171.559 283.172,171.413 283.872 C 171.192 284.938,169.048 287.200,168.259 287.200 C 168.153 287.200,167.683 286.582,167.217 285.827 C 164.550 281.512,155.705 282.058,149.029 286.951 C 148.719 287.177,148.164 286.943,147.456 286.287 C 145.314 284.302,144.096 284.000,138.220 284.000 C 128.249 284.000,129.162 280.299,129.293 320.182 L 129.400 352.778 130.310 353.689 C 131.378 354.758,144.675 355.312,147.702 354.413 C 150.672 353.531,150.576 354.227,150.800 331.960 C 150.977 314.331,151.074 311.999,151.653 311.342 C 152.012 310.934,152.437 310.150,152.599 309.600 C 153.403 306.858,157.223 304.800,161.508 304.800 C 163.964 304.800,164.500 304.664,165.560 303.773 C 166.376 303.086,167.149 302.787,167.890 302.873 L 169.000 303.000 169.200 322.200 C 169.395 340.943,169.420 341.433,170.257 342.800 C 170.728 343.570,171.240 344.796,171.394 345.524 C 172.351 350.049,178.904 354.768,184.380 354.875 C 202.291 355.226,202.800 354.930,202.800 344.151 C 202.800 335.115,202.858 335.200,196.664 335.200 C 190.560 335.200,191.000 336.536,191.000 318.000 L 191.000 303.000 195.936 302.800 C 202.854 302.520,202.802 302.585,202.794 294.078 C 202.786 285.078,202.211 284.292,195.472 284.060 C 190.573 283.891,190.814 284.187,190.806 278.333 C 190.799 272.963,190.703 272.577,189.171 271.785 C 187.713 271.031,178.247 270.980,176.918 271.719 M89.496 283.755 C 88.669 284.059,87.769 284.484,87.496 284.699 C 87.223 284.914,86.460 285.218,85.800 285.375 C 82.367 286.193,73.699 294.520,73.587 297.108 C 73.581 297.268,73.041 298.475,72.387 299.790 C 71.734 301.104,71.200 302.686,71.200 303.306 C 71.200 303.925,70.795 305.190,70.300 306.116 C 68.952 308.638,68.901 329.645,70.236 332.200 C 70.696 333.080,71.182 334.612,71.315 335.604 C 72.139 341.718,78.766 349.817,85.981 353.530 L 88.567 354.860 97.071 354.870 L 105.575 354.879 108.288 353.571 C 113.556 351.032,119.013 345.583,120.591 341.287 C 120.891 340.469,121.511 339.087,121.968 338.215 C 122.426 337.344,122.800 336.119,122.800 335.493 C 122.800 334.868,123.205 333.511,123.700 332.478 C 124.566 330.671,124.600 330.184,124.600 319.600 C 124.600 309.016,124.566 308.529,123.700 306.722 C 123.205 305.689,122.799 304.249,122.798 303.522 C 122.797 302.795,122.352 301.480,121.810 300.600 C 121.268 299.720,120.819 298.699,120.812 298.331 C 120.806 297.963,120.375 297.153,119.855 296.531 C 119.335 295.909,118.770 294.956,118.600 294.413 C 117.869 292.079,110.855 286.008,108.153 285.369 C 107.519 285.220,106.370 284.715,105.600 284.249 C 103.805 283.160,92.087 282.801,89.496 283.755 M273.400 284.565 C 271.929 285.218,270.595 286.627,270.027 288.126 C 269.275 290.111,269.454 329.017,270.227 331.436 C 270.571 332.516,270.998 335.290,271.175 337.600 C 271.433 340.973,271.703 342.186,272.548 343.760 C 273.127 344.837,273.600 345.941,273.600 346.213 C 273.600 347.135,279.763 353.053,281.658 353.951 C 283.356 354.755,284.139 354.832,290.711 354.841 C 298.627 354.852,299.042 354.762,302.756 352.242 C 303.942 351.437,304.946 350.828,304.987 350.889 C 305.028 350.950,305.298 351.593,305.587 352.319 C 306.448 354.480,307.584 354.800,314.393 354.800 C 325.654 354.800,324.574 358.379,324.714 320.592 C 324.840 286.417,324.921 287.581,322.263 285.439 L 320.726 284.200 312.832 284.200 L 304.938 284.200 303.486 285.308 C 301.241 287.020,301.205 287.402,301.202 309.343 L 301.200 329.286 299.982 331.839 C 299.311 333.243,298.423 334.573,298.008 334.796 C 296.771 335.458,294.807 335.291,294.527 334.500 C 294.390 334.115,293.991 333.466,293.639 333.058 C 293.075 332.404,292.977 329.648,292.800 309.600 C 292.577 284.292,292.787 286.044,289.803 284.628 C 288.041 283.792,275.250 283.742,273.400 284.565 M43.058 286.440 C 45.210 287.921,45.376 288.520,45.375 294.833 L 45.374 299.865 44.085 301.493 C 42.891 303.000,39.792 304.058,38.972 303.238 C 38.674 302.940,38.786 285.347,39.088 285.045 C 39.553 284.581,41.194 285.157,43.058 286.440 M98.873 304.300 C 100.649 306.209,101.104 307.317,101.380 310.400 C 101.528 312.050,101.908 314.536,102.224 315.925 C 102.945 319.084,102.943 320.500,102.217 322.892 C 101.901 323.933,101.518 326.325,101.365 328.208 C 100.633 337.226,93.453 337.714,92.661 328.800 C 92.534 327.370,92.063 325.169,91.615 323.910 C 90.546 320.906,90.554 317.452,91.636 314.715 C 92.096 313.552,92.575 311.260,92.700 309.622 C 93.079 304.655,96.478 301.725,98.873 304.300 M357.715 304.102 C 358.476 304.715,359.016 305.717,359.416 307.256 C 359.738 308.497,360.271 310.027,360.599 310.656 C 361.602 312.581,361.456 326.329,360.411 328.379 C 359.976 329.230,359.502 330.669,359.357 331.577 C 358.733 335.483,356.084 336.426,354.079 333.456 C 352.647 331.333,352.104 323.703,352.604 312.711 L 352.896 306.296 354.294 304.748 C 355.919 302.950,356.215 302.894,357.715 304.102 " stroke="none" fill="#000000" fill-rule="evenodd"></path><path id="path2" d="M169.400 45.567 C 163.700 47.118,156.810 53.582,155.408 58.693 C 155.121 59.742,154.616 61.140,154.288 61.800 C 153.867 62.645,153.620 64.954,153.453 69.600 C 153.058 80.596,148.835 86.404,140.360 87.606 C 138.862 87.818,136.953 88.249,136.118 88.563 C 135.283 88.877,133.112 89.222,131.294 89.330 C 124.743 89.717,118.583 94.296,114.743 101.634 L 113.400 104.200 113.400 111.000 L 113.400 117.800 115.135 120.898 C 117.034 124.289,122.504 129.828,124.380 130.260 C 124.941 130.389,126.210 130.961,127.200 131.531 C 128.903 132.512,129.355 132.575,135.600 132.704 C 141.030 132.817,142.448 132.971,143.600 133.572 C 144.370 133.973,145.630 134.415,146.400 134.553 C 150.055 135.206,154.897 141.446,155.601 146.410 C 155.821 147.960,156.271 149.874,156.601 150.663 C 157.546 152.927,157.420 159.460,156.400 161.000 C 155.963 161.660,155.604 162.506,155.603 162.880 C 155.599 163.879,150.274 169.118,148.936 169.440 C 148.311 169.591,147.165 170.031,146.388 170.420 C 145.355 170.937,143.478 171.203,139.388 171.412 C 134.851 171.644,133.370 171.877,131.512 172.649 C 130.254 173.172,129.012 173.600,128.753 173.600 C 126.224 173.600,117.600 182.246,117.600 184.783 C 117.600 185.126,117.150 186.252,116.600 187.285 C 111.727 196.439,120.982 213.292,131.697 214.777 C 133.074 214.968,134.920 215.388,135.800 215.710 C 136.680 216.032,139.414 216.412,141.875 216.553 C 151.868 217.129,156.973 222.780,157.569 233.926 C 157.775 237.779,158.048 239.714,158.484 240.409 C 158.826 240.954,159.225 242.202,159.371 243.183 C 160.040 247.680,167.444 255.888,171.517 256.646 C 172.333 256.798,173.720 257.300,174.600 257.761 C 176.986 259.012,185.123 259.000,187.251 257.743 C 188.048 257.271,189.243 256.766,189.904 256.621 C 196.752 255.117,202.374 246.780,202.757 237.561 C 202.914 233.786,203.178 231.508,203.503 231.116 C 203.780 230.783,204.192 229.450,204.417 228.155 C 205.178 223.792,208.205 219.803,212.344 217.709 L 214.537 216.600 224.169 216.610 L 233.800 216.620 236.203 218.072 C 240.894 220.907,243.050 224.889,243.559 231.658 C 243.746 234.156,244.164 236.830,244.486 237.600 C 244.809 238.370,245.202 239.990,245.361 241.200 C 246.029 246.305,250.572 251.503,257.631 255.238 L 260.200 256.597 266.200 256.598 L 272.200 256.600 275.600 254.941 C 280.941 252.336,285.885 247.074,286.667 243.163 C 286.816 242.421,287.304 241.191,287.752 240.432 C 288.940 238.418,288.940 231.582,287.752 229.568 C 287.304 228.809,286.817 227.584,286.669 226.846 C 285.241 219.704,276.354 213.559,267.058 213.286 C 263.013 213.167,261.136 212.953,260.474 212.533 C 259.964 212.211,258.483 211.776,257.183 211.566 C 252.421 210.799,247.586 206.017,246.500 201.000 C 246.262 199.900,245.748 198.171,245.358 197.159 C 244.667 195.366,244.671 195.239,245.495 192.359 C 245.961 190.731,246.462 188.332,246.609 187.027 C 247.432 179.705,253.419 175.121,263.015 174.465 C 266.450 174.230,268.662 173.885,269.495 173.454 C 270.191 173.094,271.361 172.800,272.096 172.800 C 272.830 172.800,274.144 172.419,275.015 171.953 C 275.887 171.488,277.230 170.781,278.000 170.382 C 281.127 168.764,286.800 161.332,286.800 158.853 C 286.800 158.479,287.160 157.148,287.600 155.896 C 288.040 154.644,288.400 152.812,288.400 151.825 C 288.400 150.837,288.040 149.116,287.600 148.000 C 287.160 146.884,286.800 145.552,286.800 145.041 C 286.800 141.356,278.990 132.692,274.675 131.589 C 273.754 131.354,272.157 130.810,271.126 130.381 C 268.542 129.304,263.458 129.304,260.874 130.381 C 259.843 130.810,258.240 131.356,257.311 131.593 C 253.196 132.645,246.171 140.035,245.439 144.083 C 245.291 144.898,244.838 146.338,244.433 147.283 C 243.898 148.529,243.631 150.457,243.460 154.317 C 243.102 162.392,240.286 167.235,234.240 170.171 L 231.879 171.318 223.165 171.240 L 214.452 171.162 212.126 169.999 C 208.442 168.157,204.405 163.269,204.398 160.640 C 204.396 160.178,204.089 159.260,203.715 158.600 C 203.204 157.698,202.979 156.011,202.808 151.800 C 202.633 147.496,202.412 145.876,201.853 144.800 C 201.453 144.030,200.883 142.731,200.585 141.913 C 199.962 140.200,197.420 136.666,195.746 135.187 C 193.963 133.611,190.926 131.600,190.331 131.600 C 190.036 131.600,188.895 131.109,187.797 130.510 C 185.850 129.447,185.588 129.414,177.400 129.195 C 168.229 128.950,167.468 128.774,163.313 125.933 C 161.372 124.606,159.182 121.147,158.457 118.263 C 158.189 117.197,157.697 115.910,157.364 115.401 C 156.303 113.782,156.773 103.723,158.067 100.357 C 159.995 95.341,164.103 91.246,167.881 90.573 C 168.716 90.424,170.030 89.975,170.800 89.574 C 171.854 89.027,173.352 88.810,176.854 88.699 C 180.440 88.586,181.755 88.391,182.582 87.848 C 183.173 87.461,184.376 86.891,185.255 86.581 C 189.737 84.999,196.058 77.801,196.614 73.646 C 196.750 72.631,197.117 71.121,197.431 70.292 C 198.124 68.455,198.173 65.064,197.523 63.874 C 197.260 63.393,196.922 61.982,196.771 60.738 C 196.153 55.651,191.900 50.527,185.284 46.901 L 182.600 45.430 176.600 45.335 C 173.300 45.283,170.060 45.388,169.400 45.567 M184.571 174.611 C 188.625 174.796,189.964 175.002,190.771 175.565 C 191.337 175.960,192.272 176.397,192.849 176.537 C 194.875 177.026,198.663 181.655,199.594 184.779 C 200.051 186.313,200.599 187.676,200.812 187.808 C 201.613 188.302,201.278 197.878,200.400 199.600 C 199.960 200.462,199.600 201.672,199.600 202.287 C 199.600 205.299,195.692 210.107,191.607 212.121 L 189.014 213.400 180.207 213.391 L 171.400 213.382 168.638 211.791 C 163.151 208.630,160.987 205.049,160.455 198.250 C 160.045 193.011,160.587 184.506,161.389 183.600 C 161.681 183.270,162.180 182.370,162.498 181.600 C 163.117 180.102,166.615 176.400,167.412 176.400 C 167.676 176.400,168.341 176.047,168.890 175.615 C 170.063 174.693,174.052 174.029,177.200 174.233 C 178.410 174.312,181.727 174.482,184.571 174.611 M332.102 259.647 C 329.211 260.482,329.412 257.141,329.293 306.230 C 329.175 354.796,329.081 352.841,331.600 354.099 C 335.166 355.881,346.305 354.826,347.785 352.566 C 348.601 351.322,348.909 351.347,351.122 352.840 C 353.924 354.732,354.466 354.836,361.495 354.845 C 368.994 354.853,369.685 354.653,373.686 351.310 C 376.763 348.739,380.800 342.154,380.800 339.706 C 380.800 339.261,381.268 337.873,381.841 336.623 L 382.882 334.349 382.882 319.416 L 382.882 304.483 381.871 302.141 C 381.314 300.854,380.751 299.143,380.619 298.341 C 380.487 297.538,380.024 296.430,379.589 295.877 C 379.155 295.325,378.800 294.616,378.800 294.301 C 378.800 292.500,373.244 286.668,369.819 284.876 L 367.000 283.400 361.534 283.400 C 356.492 283.400,355.972 283.470,354.850 284.300 C 352.411 286.103,352.459 286.296,352.324 274.300 C 352.149 258.855,352.400 259.183,340.800 259.238 C 336.730 259.257,332.816 259.441,332.102 259.647 M18.194 266.170 L 17.189 267.174 17.295 309.976 L 17.400 352.778 18.310 353.689 C 19.399 354.779,34.151 355.332,36.475 354.369 C 38.539 353.514,38.585 353.202,38.800 338.600 L 39.000 325.000 42.600 324.764 C 45.034 324.605,46.808 324.249,48.078 323.664 C 49.111 323.189,50.461 322.797,51.078 322.794 C 51.695 322.791,52.650 322.527,53.200 322.208 C 53.750 321.888,54.927 321.284,55.815 320.864 C 57.924 319.868,63.466 314.362,64.485 312.252 C 64.923 311.343,65.623 309.970,66.040 309.200 C 66.457 308.430,66.799 307.327,66.799 306.748 C 66.800 306.170,67.263 304.685,67.829 303.448 C 69.295 300.246,69.204 286.069,67.700 283.406 C 67.205 282.529,66.800 281.340,66.800 280.762 C 66.800 277.447,60.166 269.448,56.000 267.740 C 55.230 267.425,53.880 266.769,53.000 266.283 C 51.435 265.419,51.046 265.397,35.299 265.283 L 19.198 265.166 18.194 266.170 M207.790 265.758 C 205.516 266.749,205.600 265.056,205.600 309.839 C 205.600 355.747,205.443 353.074,208.214 354.232 C 210.183 355.054,224.249 355.041,226.227 354.214 C 228.750 353.160,228.800 352.786,228.800 334.813 L 228.800 318.800 234.979 318.800 L 241.159 318.800 241.279 335.118 C 241.414 353.371,241.362 353.040,244.287 354.262 C 246.312 355.108,261.355 354.895,262.705 354.001 C 264.880 352.560,264.830 353.672,264.711 308.909 L 264.600 267.618 263.491 266.509 L 262.382 265.400 253.000 265.400 L 243.618 265.400 242.509 266.509 L 241.400 267.617 241.277 282.409 L 241.155 297.200 234.977 297.200 L 228.800 297.200 228.800 282.780 C 228.800 266.847,228.747 266.478,226.352 265.643 C 224.468 264.987,209.347 265.080,207.790 265.758 M176.918 271.719 C 175.393 272.566,173.594 275.734,173.319 278.055 C 173.181 279.223,172.755 280.724,172.372 281.390 C 171.990 282.055,171.559 283.172,171.413 283.872 C 171.192 284.938,169.048 287.200,168.259 287.200 C 168.153 287.200,167.683 286.582,167.217 285.827 C 164.550 281.512,155.705 282.058,149.029 286.951 C 148.719 287.177,148.164 286.943,147.456 286.287 C 145.314 284.302,144.096 284.000,138.220 284.000 C 128.249 284.000,129.162 280.299,129.293 320.182 L 129.400 352.778 130.310 353.689 C 131.378 354.758,144.675 355.312,147.702 354.413 C 150.672 353.531,150.576 354.227,150.800 331.960 C 150.977 314.331,151.074 311.999,151.653 311.342 C 152.012 310.934,152.437 310.150,152.599 309.600 C 153.403 306.858,157.223 304.800,161.508 304.800 C 163.964 304.800,164.500 304.664,165.560 303.773 C 166.376 303.086,167.149 302.787,167.890 302.873 L 169.000 303.000 169.200 322.200 C 169.395 340.943,169.420 341.433,170.257 342.800 C 170.728 343.570,171.240 344.796,171.394 345.524 C 172.351 350.049,178.904 354.768,184.380 354.875 C 202.291 355.226,202.800 354.930,202.800 344.151 C 202.800 335.115,202.858 335.200,196.664 335.200 C 190.560 335.200,191.000 336.536,191.000 318.000 L 191.000 303.000 195.936 302.800 C 202.854 302.520,202.802 302.585,202.794 294.078 C 202.786 285.078,202.211 284.292,195.472 284.060 C 190.573 283.891,190.814 284.187,190.806 278.333 C 190.799 272.963,190.703 272.577,189.171 271.785 C 187.713 271.031,178.247 270.980,176.918 271.719 M89.496 283.755 C 88.669 284.059,87.769 284.484,87.496 284.699 C 87.223 284.914,86.460 285.218,85.800 285.375 C 82.367 286.193,73.699 294.520,73.587 297.108 C 73.581 297.268,73.041 298.475,72.387 299.790 C 71.734 301.104,71.200 302.686,71.200 303.306 C 71.200 303.925,70.795 305.190,70.300 306.116 C 68.952 308.638,68.901 329.645,70.236 332.200 C 70.696 333.080,71.182 334.612,71.315 335.604 C 72.139 341.718,78.766 349.817,85.981 353.530 L 88.567 354.860 97.071 354.870 L 105.575 354.879 108.288 353.571 C 113.556 351.032,119.013 345.583,120.591 341.287 C 120.891 340.469,121.511 339.087,121.968 338.215 C 122.426 337.344,122.800 336.119,122.800 335.493 C 122.800 334.868,123.205 333.511,123.700 332.478 C 124.566 330.671,124.600 330.184,124.600 319.600 C 124.600 309.016,124.566 308.529,123.700 306.722 C 123.205 305.689,122.799 304.249,122.798 303.522 C 122.797 302.795,122.352 301.480,121.810 300.600 C 121.268 299.720,120.819 298.699,120.812 298.331 C 120.806 297.963,120.375 297.153,119.855 296.531 C 119.335 295.909,118.770 294.956,118.600 294.413 C 117.869 292.079,110.855 286.008,108.153 285.369 C 107.519 285.220,106.370 284.715,105.600 284.249 C 103.805 283.160,92.087 282.801,89.496 283.755 M273.400 284.565 C 271.929 285.218,270.595 286.627,270.027 288.126 C 269.275 290.111,269.454 329.017,270.227 331.436 C 270.571 332.516,270.998 335.290,271.175 337.600 C 271.433 340.973,271.703 342.186,272.548 343.760 C 273.127 344.837,273.600 345.941,273.600 346.213 C 273.600 347.135,279.763 353.053,281.658 353.951 C 283.356 354.755,284.139 354.832,290.711 354.841 C 298.627 354.852,299.042 354.762,302.756 352.242 C 303.942 351.437,304.946 350.828,304.987 350.889 C 305.028 350.950,305.298 351.593,305.587 352.319 C 306.448 354.480,307.584 354.800,314.393 354.800 C 325.654 354.800,324.574 358.379,324.714 320.592 C 324.840 286.417,324.921 287.581,322.263 285.439 L 320.726 284.200 312.832 284.200 L 304.938 284.200 303.486 285.308 C 301.241 287.020,301.205 287.402,301.202 309.343 L 301.200 329.286 299.982 331.839 C 299.311 333.243,298.423 334.573,298.008 334.796 C 296.771 335.458,294.807 335.291,294.527 334.500 C 294.390 334.115,293.991 333.466,293.639 333.058 C 293.075 332.404,292.977 329.648,292.800 309.600 C 292.577 284.292,292.787 286.044,289.803 284.628 C 288.041 283.792,275.250 283.742,273.400 284.565 M43.058 286.440 C 45.210 287.921,45.376 288.520,45.375 294.833 L 45.374 299.865 44.085 301.493 C 42.891 303.000,39.792 304.058,38.972 303.238 C 38.674 302.940,38.786 285.347,39.088 285.045 C 39.553 284.581,41.194 285.157,43.058 286.440 M98.873 304.300 C 100.649 306.209,101.104 307.317,101.380 310.400 C 101.528 312.050,101.908 314.536,102.224 315.925 C 102.945 319.084,102.943 320.500,102.217 322.892 C 101.901 323.933,101.518 326.325,101.365 328.208 C 100.633 337.226,93.453 337.714,92.661 328.800 C 92.534 327.370,92.063 325.169,91.615 323.910 C 90.546 320.906,90.554 317.452,91.636 314.715 C 92.096 313.552,92.575 311.260,92.700 309.622 C 93.079 304.655,96.478 301.725,98.873 304.300 M357.715 304.102 C 358.476 304.715,359.016 305.717,359.416 307.256 C 359.738 308.497,360.271 310.027,360.599 310.656 C 361.602 312.581,361.456 326.329,360.411 328.379 C 359.976 329.230,359.502 330.669,359.357 331.577 C 358.733 335.483,356.084 336.426,354.079 333.456 C 352.647 331.333,352.104 323.703,352.604 312.711 L 352.896 306.296 354.294 304.748 C 355.919 302.950,356.215 302.894,357.715 304.102 " stroke="none" fill="#000000" fill-rule="evenodd"></path><path id="path3" d="M169.400 45.567 C 163.700 47.118,156.810 53.582,155.408 58.693 C 155.121 59.742,154.616 61.140,154.288 61.800 C 153.867 62.645,153.620 64.954,153.453 69.600 C 153.058 80.596,148.835 86.404,140.360 87.606 C 138.862 87.818,136.953 88.249,136.118 88.563 C 135.283 88.877,133.112 89.222,131.294 89.330 C 124.743 89.717,118.583 94.296,114.743 101.634 L 113.400 104.200 113.400 111.000 L 113.400 117.800 115.135 120.898 C 117.034 124.289,122.504 129.828,124.380 130.260 C 124.941 130.389,126.210 130.961,127.200 131.531 C 128.903 132.512,129.355 132.575,135.600 132.704 C 141.030 132.817,142.448 132.971,143.600 133.572 C 144.370 133.973,145.630 134.415,146.400 134.553 C 150.055 135.206,154.897 141.446,155.601 146.410 C 155.821 147.960,156.271 149.874,156.601 150.663 C 157.546 152.927,157.420 159.460,156.400 161.000 C 155.963 161.660,155.604 162.506,155.603 162.880 C 155.599 163.879,150.274 169.118,148.936 169.440 C 148.311 169.591,147.165 170.031,146.388 170.420 C 145.355 170.937,143.478 171.203,139.388 171.412 C 134.851 171.644,133.370 171.877,131.512 172.649 C 130.254 173.172,129.012 173.600,128.753 173.600 C 126.224 173.600,117.600 182.246,117.600 184.783 C 117.600 185.126,117.150 186.252,116.600 187.285 C 111.727 196.439,120.982 213.292,131.697 214.777 C 133.074 214.968,134.920 215.388,135.800 215.710 C 136.680 216.032,139.414 216.412,141.875 216.553 C 151.868 217.129,156.973 222.780,157.569 233.926 C 157.775 237.779,158.048 239.714,158.484 240.409 C 158.826 240.954,159.225 242.202,159.371 243.183 C 160.040 247.680,167.444 255.888,171.517 256.646 C 172.333 256.798,173.720 257.300,174.600 257.761 C 176.986 259.012,185.123 259.000,187.251 257.743 C 188.048 257.271,189.243 256.766,189.904 256.621 C 196.752 255.117,202.374 246.780,202.757 237.561 C 202.914 233.786,203.178 231.508,203.503 231.116 C 203.780 230.783,204.192 229.450,204.417 228.155 C 205.178 223.792,208.205 219.803,212.344 217.709 L 214.537 216.600 224.169 216.610 L 233.800 216.620 236.203 218.072 C 240.894 220.907,243.050 224.889,243.559 231.658 C 243.746 234.156,244.164 236.830,244.486 237.600 C 244.809 238.370,245.202 239.990,245.361 241.200 C 246.029 246.305,250.572 251.503,257.631 255.238 L 260.200 256.597 266.200 256.598 L 272.200 256.600 275.600 254.941 C 280.941 252.336,285.885 247.074,286.667 243.163 C 286.816 242.421,287.304 241.191,287.752 240.432 C 288.940 238.418,288.940 231.582,287.752 229.568 C 287.304 228.809,286.817 227.584,286.669 226.846 C 285.241 219.704,276.354 213.559,267.058 213.286 C 263.013 213.167,261.136 212.953,260.474 212.533 C 259.964 212.211,258.483 211.776,257.183 211.566 C 252.421 210.799,247.586 206.017,246.500 201.000 C 246.262 199.900,245.748 198.171,245.358 197.159 C 244.667 195.366,244.671 195.239,245.495 192.359 C 245.961 190.731,246.462 188.332,246.609 187.027 C 247.432 179.705,253.419 175.121,263.015 174.465 C 266.450 174.230,268.662 173.885,269.495 173.454 C 270.191 173.094,271.361 172.800,272.096 172.800 C 272.830 172.800,274.144 172.419,275.015 171.953 C 275.887 171.488,277.230 170.781,278.000 170.382 C 281.127 168.764,286.800 161.332,286.800 158.853 C 286.800 158.479,287.160 157.148,287.600 155.896 C 288.040 154.644,288.400 152.812,288.400 151.825 C 288.400 150.837,288.040 149.116,287.600 148.000 C 287.160 146.884,286.800 145.552,286.800 145.041 C 286.800 141.356,278.990 132.692,274.675 131.589 C 273.754 131.354,272.157 130.810,271.126 130.381 C 268.542 129.304,263.458 129.304,260.874 130.381 C 259.843 130.810,258.240 131.356,257.311 131.593 C 253.196 132.645,246.171 140.035,245.439 144.083 C 245.291 144.898,244.838 146.338,244.433 147.283 C 243.898 148.529,243.631 150.457,243.460 154.317 C 243.102 162.392,240.286 167.235,234.240 170.171 L 231.879 171.318 223.165 171.240 L 214.452 171.162 212.126 169.999 C 208.442 168.157,204.405 163.269,204.398 160.640 C 204.396 160.178,204.089 159.260,203.715 158.600 C 203.204 157.698,202.979 156.011,202.808 151.800 C 202.633 147.496,202.412 145.876,201.853 144.800 C 201.453 144.030,200.883 142.731,200.585 141.913 C 199.962 140.200,197.420 136.666,195.746 135.187 C 193.963 133.611,190.926 131.600,190.331 131.600 C 190.036 131.600,188.895 131.109,187.797 130.510 C 185.850 129.447,185.588 129.414,177.400 129.195 C 168.229 128.950,167.468 128.774,163.313 125.933 C 161.372 124.606,159.182 121.147,158.457 118.263 C 158.189 117.197,157.697 115.910,157.364 115.401 C 156.303 113.782,156.773 103.723,158.067 100.357 C 159.995 95.341,164.103 91.246,167.881 90.573 C 168.716 90.424,170.030 89.975,170.800 89.574 C 171.854 89.027,173.352 88.810,176.854 88.699 C 180.440 88.586,181.755 88.391,182.582 87.848 C 183.173 87.461,184.376 86.891,185.255 86.581 C 189.737 84.999,196.058 77.801,196.614 73.646 C 196.750 72.631,197.117 71.121,197.431 70.292 C 198.124 68.455,198.173 65.064,197.523 63.874 C 197.260 63.393,196.922 61.982,196.771 60.738 C 196.153 55.651,191.900 50.527,185.284 46.901 L 182.600 45.430 176.600 45.335 C 173.300 45.283,170.060 45.388,169.400 45.567 M184.571 174.611 C 188.625 174.796,189.964 175.002,190.771 175.565 C 191.337 175.960,192.272 176.397,192.849 176.537 C 194.875 177.026,198.663 181.655,199.594 184.779 C 200.051 186.313,200.599 187.676,200.812 187.808 C 201.613 188.302,201.278 197.878,200.400 199.600 C 199.960 200.462,199.600 201.672,199.600 202.287 C 199.600 205.299,195.692 210.107,191.607 212.121 L 189.014 213.400 180.207 213.391 L 171.400 213.382 168.638 211.791 C 163.151 208.630,160.987 205.049,160.455 198.250 C 160.045 193.011,160.587 184.506,161.389 183.600 C 161.681 183.270,162.180 182.370,162.498 181.600 C 163.117 180.102,166.615 176.400,167.412 176.400 C 167.676 176.400,168.341 176.047,168.890 175.615 C 170.063 174.693,174.052 174.029,177.200 174.233 C 178.410 174.312,181.727 174.482,184.571 174.611 M332.102 259.647 C 329.211 260.482,329.412 257.141,329.293 306.230 C 329.175 354.796,329.081 352.841,331.600 354.099 C 335.166 355.881,346.305 354.826,347.785 352.566 C 348.601 351.322,348.909 351.347,351.122 352.840 C 353.924 354.732,354.466 354.836,361.495 354.845 C 368.994 354.853,369.685 354.653,373.686 351.310 C 376.763 348.739,380.800 342.154,380.800 339.706 C 380.800 339.261,381.268 337.873,381.841 336.623 L 382.882 334.349 382.882 319.416 L 382.882 304.483 381.871 302.141 C 381.314 300.854,380.751 299.143,380.619 298.341 C 380.487 297.538,380.024 296.430,379.589 295.877 C 379.155 295.325,378.800 294.616,378.800 294.301 C 378.800 292.500,373.244 286.668,369.819 284.876 L 367.000 283.400 361.534 283.400 C 356.492 283.400,355.972 283.470,354.850 284.300 C 352.411 286.103,352.459 286.296,352.324 274.300 C 352.149 258.855,352.400 259.183,340.800 259.238 C 336.730 259.257,332.816 259.441,332.102 259.647 M18.194 266.170 L 17.189 267.174 17.295 309.976 L 17.400 352.778 18.310 353.689 C 19.399 354.779,34.151 355.332,36.475 354.369 C 38.539 353.514,38.585 353.202,38.800 338.600 L 39.000 325.000 42.600 324.764 C 45.034 324.605,46.808 324.249,48.078 323.664 C 49.111 323.189,50.461 322.797,51.078 322.794 C 51.695 322.791,52.650 322.527,53.200 322.208 C 53.750 321.888,54.927 321.284,55.815 320.864 C 57.924 319.868,63.466 314.362,64.485 312.252 C 64.923 311.343,65.623 309.970,66.040 309.200 C 66.457 308.430,66.799 307.327,66.799 306.748 C 66.800 306.170,67.263 304.685,67.829 303.448 C 69.295 300.246,69.204 286.069,67.700 283.406 C 67.205 282.529,66.800 281.340,66.800 280.762 C 66.800 277.447,60.166 269.448,56.000 267.740 C 55.230 267.425,53.880 266.769,53.000 266.283 C 51.435 265.419,51.046 265.397,35.299 265.283 L 19.198 265.166 18.194 266.170 M207.790 265.758 C 205.516 266.749,205.600 265.056,205.600 309.839 C 205.600 355.747,205.443 353.074,208.214 354.232 C 210.183 355.054,224.249 355.041,226.227 354.214 C 228.750 353.160,228.800 352.786,228.800 334.813 L 228.800 318.800 234.979 318.800 L 241.159 318.800 241.279 335.118 C 241.414 353.371,241.362 353.040,244.287 354.262 C 246.312 355.108,261.355 354.895,262.705 354.001 C 264.880 352.560,264.830 353.672,264.711 308.909 L 264.600 267.618 263.491 266.509 L 262.382 265.400 253.000 265.400 L 243.618 265.400 242.509 266.509 L 241.400 267.617 241.277 282.409 L 241.155 297.200 234.977 297.200 L 228.800 297.200 228.800 282.780 C 228.800 266.847,228.747 266.478,226.352 265.643 C 224.468 264.987,209.347 265.080,207.790 265.758 M176.918 271.719 C 175.393 272.566,173.594 275.734,173.319 278.055 C 173.181 279.223,172.755 280.724,172.372 281.390 C 171.990 282.055,171.559 283.172,171.413 283.872 C 171.192 284.938,169.048 287.200,168.259 287.200 C 168.153 287.200,167.683 286.582,167.217 285.827 C 164.550 281.512,155.705 282.058,149.029 286.951 C 148.719 287.177,148.164 286.943,147.456 286.287 C 145.314 284.302,144.096 284.000,138.220 284.000 C 128.249 284.000,129.162 280.299,129.293 320.182 L 129.400 352.778 130.310 353.689 C 131.378 354.758,144.675 355.312,147.702 354.413 C 150.672 353.531,150.576 354.227,150.800 331.960 C 150.977 314.331,151.074 311.999,151.653 311.342 C 152.012 310.934,152.437 310.150,152.599 309.600 C 153.403 306.858,157.223 304.800,161.508 304.800 C 163.964 304.800,164.500 304.664,165.560 303.773 C 166.376 303.086,167.149 302.787,167.890 302.873 L 169.000 303.000 169.200 322.200 C 169.395 340.943,169.420 341.433,170.257 342.800 C 170.728 343.570,171.240 344.796,171.394 345.524 C 172.351 350.049,178.904 354.768,184.380 354.875 C 202.291 355.226,202.800 354.930,202.800 344.151 C 202.800 335.115,202.858 335.200,196.664 335.200 C 190.560 335.200,191.000 336.536,191.000 318.000 L 191.000 303.000 195.936 302.800 C 202.854 302.520,202.802 302.585,202.794 294.078 C 202.786 285.078,202.211 284.292,195.472 284.060 C 190.573 283.891,190.814 284.187,190.806 278.333 C 190.799 272.963,190.703 272.577,189.171 271.785 C 187.713 271.031,178.247 270.980,176.918 271.719 M89.496 283.755 C 88.669 284.059,87.769 284.484,87.496 284.699 C 87.223 284.914,86.460 285.218,85.800 285.375 C 82.367 286.193,73.699 294.520,73.587 297.108 C 73.581 297.268,73.041 298.475,72.387 299.790 C 71.734 301.104,71.200 302.686,71.200 303.306 C 71.200 303.925,70.795 305.190,70.300 306.116 C 68.952 308.638,68.901 329.645,70.236 332.200 C 70.696 333.080,71.182 334.612,71.315 335.604 C 72.139 341.718,78.766 349.817,85.981 353.530 L 88.567 354.860 97.071 354.870 L 105.575 354.879 108.288 353.571 C 113.556 351.032,119.013 345.583,120.591 341.287 C 120.891 340.469,121.511 339.087,121.968 338.215 C 122.426 337.344,122.800 336.119,122.800 335.493 C 122.800 334.868,123.205 333.511,123.700 332.478 C 124.566 330.671,124.600 330.184,124.600 319.600 C 124.600 309.016,124.566 308.529,123.700 306.722 C 123.205 305.689,122.799 304.249,122.798 303.522 C 122.797 302.795,122.352 301.480,121.810 300.600 C 121.268 299.720,120.819 298.699,120.812 298.331 C 120.806 297.963,120.375 297.153,119.855 296.531 C 119.335 295.909,118.770 294.956,118.600 294.413 C 117.869 292.079,110.855 286.008,108.153 285.369 C 107.519 285.220,106.370 284.715,105.600 284.249 C 103.805 283.160,92.087 282.801,89.496 283.755 M273.400 284.565 C 271.929 285.218,270.595 286.627,270.027 288.126 C 269.275 290.111,269.454 329.017,270.227 331.436 C 270.571 332.516,270.998 335.290,271.175 337.600 C 271.433 340.973,271.703 342.186,272.548 343.760 C 273.127 344.837,273.600 345.941,273.600 346.213 C 273.600 347.135,279.763 353.053,281.658 353.951 C 283.356 354.755,284.139 354.832,290.711 354.841 C 298.627 354.852,299.042 354.762,302.756 352.242 C 303.942 351.437,304.946 350.828,304.987 350.889 C 305.028 350.950,305.298 351.593,305.587 352.319 C 306.448 354.480,307.584 354.800,314.393 354.800 C 325.654 354.800,324.574 358.379,324.714 320.592 C 324.840 286.417,324.921 287.581,322.263 285.439 L 320.726 284.200 312.832 284.200 L 304.938 284.200 303.486 285.308 C 301.241 287.020,301.205 287.402,301.202 309.343 L 301.200 329.286 299.982 331.839 C 299.311 333.243,298.423 334.573,298.008 334.796 C 296.771 335.458,294.807 335.291,294.527 334.500 C 294.390 334.115,293.991 333.466,293.639 333.058 C 293.075 332.404,292.977 329.648,292.800 309.600 C 292.577 284.292,292.787 286.044,289.803 284.628 C 288.041 283.792,275.250 283.742,273.400 284.565 M43.058 286.440 C 45.210 287.921,45.376 288.520,45.375 294.833 L 45.374 299.865 44.085 301.493 C 42.891 303.000,39.792 304.058,38.972 303.238 C 38.674 302.940,38.786 285.347,39.088 285.045 C 39.553 284.581,41.194 285.157,43.058 286.440 M98.873 304.300 C 100.649 306.209,101.104 307.317,101.380 310.400 C 101.528 312.050,101.908 314.536,102.224 315.925 C 102.945 319.084,102.943 320.500,102.217 322.892 C 101.901 323.933,101.518 326.325,101.365 328.208 C 100.633 337.226,93.453 337.714,92.661 328.800 C 92.534 327.370,92.063 325.169,91.615 323.910 C 90.546 320.906,90.554 317.452,91.636 314.715 C 92.096 313.552,92.575 311.260,92.700 309.622 C 93.079 304.655,96.478 301.725,98.873 304.300 M357.715 304.102 C 358.476 304.715,359.016 305.717,359.416 307.256 C 359.738 308.497,360.271 310.027,360.599 310.656 C 361.602 312.581,361.456 326.329,360.411 328.379 C 359.976 329.230,359.502 330.669,359.357 331.577 C 358.733 335.483,356.084 336.426,354.079 333.456 C 352.647 331.333,352.104 323.703,352.604 312.711 L 352.896 306.296 354.294 304.748 C 355.919 302.950,356.215 302.894,357.715 304.102 " stroke="none" fill="#000000" fill-rule="evenodd"></path><path id="path4" d="M169.400 45.567 C 163.700 47.118,156.810 53.582,155.408 58.693 C 155.121 59.742,154.616 61.140,154.288 61.800 C 153.867 62.645,153.620 64.954,153.453 69.600 C 153.058 80.596,148.835 86.404,140.360 87.606 C 138.862 87.818,136.953 88.249,136.118 88.563 C 135.283 88.877,133.112 89.222,131.294 89.330 C 124.743 89.717,118.583 94.296,114.743 101.634 L 113.400 104.200 113.400 111.000 L 113.400 117.800 115.135 120.898 C 117.034 124.289,122.504 129.828,124.380 130.260 C 124.941 130.389,126.210 130.961,127.200 131.531 C 128.903 132.512,129.355 132.575,135.600 132.704 C 141.030 132.817,142.448 132.971,143.600 133.572 C 144.370 133.973,145.630 134.415,146.400 134.553 C 150.055 135.206,154.897 141.446,155.601 146.410 C 155.821 147.960,156.271 149.874,156.601 150.663 C 157.546 152.927,157.420 159.460,156.400 161.000 C 155.963 161.660,155.604 162.506,155.603 162.880 C 155.599 163.879,150.274 169.118,148.936 169.440 C 148.311 169.591,147.165 170.031,146.388 170.420 C 145.355 170.937,143.478 171.203,139.388 171.412 C 134.851 171.644,133.370 171.877,131.512 172.649 C 130.254 173.172,129.012 173.600,128.753 173.600 C 126.224 173.600,117.600 182.246,117.600 184.783 C 117.600 185.126,117.150 186.252,116.600 187.285 C 111.727 196.439,120.982 213.292,131.697 214.777 C 133.074 214.968,134.920 215.388,135.800 215.710 C 136.680 216.032,139.414 216.412,141.875 216.553 C 151.868 217.129,156.973 222.780,157.569 233.926 C 157.775 237.779,158.048 239.714,158.484 240.409 C 158.826 240.954,159.225 242.202,159.371 243.183 C 160.040 247.680,167.444 255.888,171.517 256.646 C 172.333 256.798,173.720 257.300,174.600 257.761 C 176.986 259.012,185.123 259.000,187.251 257.743 C 188.048 257.271,189.243 256.766,189.904 256.621 C 196.752 255.117,202.374 246.780,202.757 237.561 C 202.914 233.786,203.178 231.508,203.503 231.116 C 203.780 230.783,204.192 229.450,204.417 228.155 C 205.178 223.792,208.205 219.803,212.344 217.709 L 214.537 216.600 224.169 216.610 L 233.800 216.620 236.203 218.072 C 240.894 220.907,243.050 224.889,243.559 231.658 C 243.746 234.156,244.164 236.830,244.486 237.600 C 244.809 238.370,245.202 239.990,245.361 241.200 C 246.029 246.305,250.572 251.503,257.631 255.238 L 260.200 256.597 266.200 256.598 L 272.200 256.600 275.600 254.941 C 280.941 252.336,285.885 247.074,286.667 243.163 C 286.816 242.421,287.304 241.191,287.752 240.432 C 288.940 238.418,288.940 231.582,287.752 229.568 C 287.304 228.809,286.817 227.584,286.669 226.846 C 285.241 219.704,276.354 213.559,267.058 213.286 C 263.013 213.167,261.136 212.953,260.474 212.533 C 259.964 212.211,258.483 211.776,257.183 211.566 C 252.421 210.799,247.586 206.017,246.500 201.000 C 246.262 199.900,245.748 198.171,245.358 197.159 C 244.667 195.366,244.671 195.239,245.495 192.359 C 245.961 190.731,246.462 188.332,246.609 187.027 C 247.432 179.705,253.419 175.121,263.015 174.465 C 266.450 174.230,268.662 173.885,269.495 173.454 C 270.191 173.094,271.361 172.800,272.096 172.800 C 272.830 172.800,274.144 172.419,275.015 171.953 C 275.887 171.488,277.230 170.781,278.000 170.382 C 281.127 168.764,286.800 161.332,286.800 158.853 C 286.800 158.479,287.160 157.148,287.600 155.896 C 288.040 154.644,288.400 152.812,288.400 151.825 C 288.400 150.837,288.040 149.116,287.600 148.000 C 287.160 146.884,286.800 145.552,286.800 145.041 C 286.800 141.356,278.990 132.692,274.675 131.589 C 273.754 131.354,272.157 130.810,271.126 130.381 C 268.542 129.304,263.458 129.304,260.874 130.381 C 259.843 130.810,258.240 131.356,257.311 131.593 C 253.196 132.645,246.171 140.035,245.439 144.083 C 245.291 144.898,244.838 146.338,244.433 147.283 C 243.898 148.529,243.631 150.457,243.460 154.317 C 243.102 162.392,240.286 167.235,234.240 170.171 L 231.879 171.318 223.165 171.240 L 214.452 171.162 212.126 169.999 C 208.442 168.157,204.405 163.269,204.398 160.640 C 204.396 160.178,204.089 159.260,203.715 158.600 C 203.204 157.698,202.979 156.011,202.808 151.800 C 202.633 147.496,202.412 145.876,201.853 144.800 C 201.453 144.030,200.883 142.731,200.585 141.913 C 199.962 140.200,197.420 136.666,195.746 135.187 C 193.963 133.611,190.926 131.600,190.331 131.600 C 190.036 131.600,188.895 131.109,187.797 130.510 C 185.850 129.447,185.588 129.414,177.400 129.195 C 168.229 128.950,167.468 128.774,163.313 125.933 C 161.372 124.606,159.182 121.147,158.457 118.263 C 158.189 117.197,157.697 115.910,157.364 115.401 C 156.303 113.782,156.773 103.723,158.067 100.357 C 159.995 95.341,164.103 91.246,167.881 90.573 C 168.716 90.424,170.030 89.975,170.800 89.574 C 171.854 89.027,173.352 88.810,176.854 88.699 C 180.440 88.586,181.755 88.391,182.582 87.848 C 183.173 87.461,184.376 86.891,185.255 86.581 C 189.737 84.999,196.058 77.801,196.614 73.646 C 196.750 72.631,197.117 71.121,197.431 70.292 C 198.124 68.455,198.173 65.064,197.523 63.874 C 197.260 63.393,196.922 61.982,196.771 60.738 C 196.153 55.651,191.900 50.527,185.284 46.901 L 182.600 45.430 176.600 45.335 C 173.300 45.283,170.060 45.388,169.400 45.567 M184.571 174.611 C 188.625 174.796,189.964 175.002,190.771 175.565 C 191.337 175.960,192.272 176.397,192.849 176.537 C 194.875 177.026,198.663 181.655,199.594 184.779 C 200.051 186.313,200.599 187.676,200.812 187.808 C 201.613 188.302,201.278 197.878,200.400 199.600 C 199.960 200.462,199.600 201.672,199.600 202.287 C 199.600 205.299,195.692 210.107,191.607 212.121 L 189.014 213.400 180.207 213.391 L 171.400 213.382 168.638 211.791 C 163.151 208.630,160.987 205.049,160.455 198.250 C 160.045 193.011,160.587 184.506,161.389 183.600 C 161.681 183.270,162.180 182.370,162.498 181.600 C 163.117 180.102,166.615 176.400,167.412 176.400 C 167.676 176.400,168.341 176.047,168.890 175.615 C 170.063 174.693,174.052 174.029,177.200 174.233 C 178.410 174.312,181.727 174.482,184.571 174.611 M332.102 259.647 C 329.211 260.482,329.412 257.141,329.293 306.230 C 329.175 354.796,329.081 352.841,331.600 354.099 C 335.166 355.881,346.305 354.826,347.785 352.566 C 348.601 351.322,348.909 351.347,351.122 352.840 C 353.924 354.732,354.466 354.836,361.495 354.845 C 368.994 354.853,369.685 354.653,373.686 351.310 C 376.763 348.739,380.800 342.154,380.800 339.706 C 380.800 339.261,381.268 337.873,381.841 336.623 L 382.882 334.349 382.882 319.416 L 382.882 304.483 381.871 302.141 C 381.314 300.854,380.751 299.143,380.619 298.341 C 380.487 297.538,380.024 296.430,379.589 295.877 C 379.155 295.325,378.800 294.616,378.800 294.301 C 378.800 292.500,373.244 286.668,369.819 284.876 L 367.000 283.400 361.534 283.400 C 356.492 283.400,355.972 283.470,354.850 284.300 C 352.411 286.103,352.459 286.296,352.324 274.300 C 352.149 258.855,352.400 259.183,340.800 259.238 C 336.730 259.257,332.816 259.441,332.102 259.647 M18.194 266.170 L 17.189 267.174 17.295 309.976 L 17.400 352.778 18.310 353.689 C 19.399 354.779,34.151 355.332,36.475 354.369 C 38.539 353.514,38.585 353.202,38.800 338.600 L 39.000 325.000 42.600 324.764 C 45.034 324.605,46.808 324.249,48.078 323.664 C 49.111 323.189,50.461 322.797,51.078 322.794 C 51.695 322.791,52.650 322.527,53.200 322.208 C 53.750 321.888,54.927 321.284,55.815 320.864 C 57.924 319.868,63.466 314.362,64.485 312.252 C 64.923 311.343,65.623 309.970,66.040 309.200 C 66.457 308.430,66.799 307.327,66.799 306.748 C 66.800 306.170,67.263 304.685,67.829 303.448 C 69.295 300.246,69.204 286.069,67.700 283.406 C 67.205 282.529,66.800 281.340,66.800 280.762 C 66.800 277.447,60.166 269.448,56.000 267.740 C 55.230 267.425,53.880 266.769,53.000 266.283 C 51.435 265.419,51.046 265.397,35.299 265.283 L 19.198 265.166 18.194 266.170 M207.790 265.758 C 205.516 266.749,205.600 265.056,205.600 309.839 C 205.600 355.747,205.443 353.074,208.214 354.232 C 210.183 355.054,224.249 355.041,226.227 354.214 C 228.750 353.160,228.800 352.786,228.800 334.813 L 228.800 318.800 234.979 318.800 L 241.159 318.800 241.279 335.118 C 241.414 353.371,241.362 353.040,244.287 354.262 C 246.312 355.108,261.355 354.895,262.705 354.001 C 264.880 352.560,264.830 353.672,264.711 308.909 L 264.600 267.618 263.491 266.509 L 262.382 265.400 253.000 265.400 L 243.618 265.400 242.509 266.509 L 241.400 267.617 241.277 282.409 L 241.155 297.200 234.977 297.200 L 228.800 297.200 228.800 282.780 C 228.800 266.847,228.747 266.478,226.352 265.643 C 224.468 264.987,209.347 265.080,207.790 265.758 M176.918 271.719 C 175.393 272.566,173.594 275.734,173.319 278.055 C 173.181 279.223,172.755 280.724,172.372 281.390 C 171.990 282.055,171.559 283.172,171.413 283.872 C 171.192 284.938,169.048 287.200,168.259 287.200 C 168.153 287.200,167.683 286.582,167.217 285.827 C 164.550 281.512,155.705 282.058,149.029 286.951 C 148.719 287.177,148.164 286.943,147.456 286.287 C 145.314 284.302,144.096 284.000,138.220 284.000 C 128.249 284.000,129.162 280.299,129.293 320.182 L 129.400 352.778 130.310 353.689 C 131.378 354.758,144.675 355.312,147.702 354.413 C 150.672 353.531,150.576 354.227,150.800 331.960 C 150.977 314.331,151.074 311.999,151.653 311.342 C 152.012 310.934,152.437 310.150,152.599 309.600 C 153.403 306.858,157.223 304.800,161.508 304.800 C 163.964 304.800,164.500 304.664,165.560 303.773 C 166.376 303.086,167.149 302.787,167.890 302.873 L 169.000 303.000 169.200 322.200 C 169.395 340.943,169.420 341.433,170.257 342.800 C 170.728 343.570,171.240 344.796,171.394 345.524 C 172.351 350.049,178.904 354.768,184.380 354.875 C 202.291 355.226,202.800 354.930,202.800 344.151 C 202.800 335.115,202.858 335.200,196.664 335.200 C 190.560 335.200,191.000 336.536,191.000 318.000 L 191.000 303.000 195.936 302.800 C 202.854 302.520,202.802 302.585,202.794 294.078 C 202.786 285.078,202.211 284.292,195.472 284.060 C 190.573 283.891,190.814 284.187,190.806 278.333 C 190.799 272.963,190.703 272.577,189.171 271.785 C 187.713 271.031,178.247 270.980,176.918 271.719 M89.496 283.755 C 88.669 284.059,87.769 284.484,87.496 284.699 C 87.223 284.914,86.460 285.218,85.800 285.375 C 82.367 286.193,73.699 294.520,73.587 297.108 C 73.581 297.268,73.041 298.475,72.387 299.790 C 71.734 301.104,71.200 302.686,71.200 303.306 C 71.200 303.925,70.795 305.190,70.300 306.116 C 68.952 308.638,68.901 329.645,70.236 332.200 C 70.696 333.080,71.182 334.612,71.315 335.604 C 72.139 341.718,78.766 349.817,85.981 353.530 L 88.567 354.860 97.071 354.870 L 105.575 354.879 108.288 353.571 C 113.556 351.032,119.013 345.583,120.591 341.287 C 120.891 340.469,121.511 339.087,121.968 338.215 C 122.426 337.344,122.800 336.119,122.800 335.493 C 122.800 334.868,123.205 333.511,123.700 332.478 C 124.566 330.671,124.600 330.184,124.600 319.600 C 124.600 309.016,124.566 308.529,123.700 306.722 C 123.205 305.689,122.799 304.249,122.798 303.522 C 122.797 302.795,122.352 301.480,121.810 300.600 C 121.268 299.720,120.819 298.699,120.812 298.331 C 120.806 297.963,120.375 297.153,119.855 296.531 C 119.335 295.909,118.770 294.956,118.600 294.413 C 117.869 292.079,110.855 286.008,108.153 285.369 C 107.519 285.220,106.370 284.715,105.600 284.249 C 103.805 283.160,92.087 282.801,89.496 283.755 M273.400 284.565 C 271.929 285.218,270.595 286.627,270.027 288.126 C 269.275 290.111,269.454 329.017,270.227 331.436 C 270.571 332.516,270.998 335.290,271.175 337.600 C 271.433 340.973,271.703 342.186,272.548 343.760 C 273.127 344.837,273.600 345.941,273.600 346.213 C 273.600 347.135,279.763 353.053,281.658 353.951 C 283.356 354.755,284.139 354.832,290.711 354.841 C 298.627 354.852,299.042 354.762,302.756 352.242 C 303.942 351.437,304.946 350.828,304.987 350.889 C 305.028 350.950,305.298 351.593,305.587 352.319 C 306.448 354.480,307.584 354.800,314.393 354.800 C 325.654 354.800,324.574 358.379,324.714 320.592 C 324.840 286.417,324.921 287.581,322.263 285.439 L 320.726 284.200 312.832 284.200 L 304.938 284.200 303.486 285.308 C 301.241 287.020,301.205 287.402,301.202 309.343 L 301.200 329.286 299.982 331.839 C 299.311 333.243,298.423 334.573,298.008 334.796 C 296.771 335.458,294.807 335.291,294.527 334.500 C 294.390 334.115,293.991 333.466,293.639 333.058 C 293.075 332.404,292.977 329.648,292.800 309.600 C 292.577 284.292,292.787 286.044,289.803 284.628 C 288.041 283.792,275.250 283.742,273.400 284.565 M43.058 286.440 C 45.210 287.921,45.376 288.520,45.375 294.833 L 45.374 299.865 44.085 301.493 C 42.891 303.000,39.792 304.058,38.972 303.238 C 38.674 302.940,38.786 285.347,39.088 285.045 C 39.553 284.581,41.194 285.157,43.058 286.440 M98.873 304.300 C 100.649 306.209,101.104 307.317,101.380 310.400 C 101.528 312.050,101.908 314.536,102.224 315.925 C 102.945 319.084,102.943 320.500,102.217 322.892 C 101.901 323.933,101.518 326.325,101.365 328.208 C 100.633 337.226,93.453 337.714,92.661 328.800 C 92.534 327.370,92.063 325.169,91.615 323.910 C 90.546 320.906,90.554 317.452,91.636 314.715 C 92.096 313.552,92.575 311.260,92.700 309.622 C 93.079 304.655,96.478 301.725,98.873 304.300 M357.715 304.102 C 358.476 304.715,359.016 305.717,359.416 307.256 C 359.738 308.497,360.271 310.027,360.599 310.656 C 361.602 312.581,361.456 326.329,360.411 328.379 C 359.976 329.230,359.502 330.669,359.357 331.577 C 358.733 335.483,356.084 336.426,354.079 333.456 C 352.647 331.333,352.104 323.703,352.604 312.711 L 352.896 306.296 354.294 304.748 C 355.919 302.950,356.215 302.894,357.715 304.102 " stroke="none" fill="#000000" fill-rule="evenodd"></path></g></svg>